<?xml version="1.0" encoding="utf-8"?>
<!-- Generator: Adobe Illustrator 23.0.2, SVG Export Plug-In . SVG Version: 6.00 Build 0)  -->
<svg version="1.1"
	 id="svg2" xmlns:cc="http://creativecommons.org/ns#" xmlns:dc="http://purl.org/dc/elements/1.1/" xmlns:inkscape="http://www.inkscape.org/namespaces/inkscape" xmlns:rdf="http://www.w3.org/1999/02/22-rdf-syntax-ns#" xmlns:sodipodi="http://sodipodi.sourceforge.net/DTD/sodipodi-0.dtd" xmlns:svg="http://www.w3.org/2000/svg"
	 xmlns="http://www.w3.org/2000/svg" xmlns:xlink="http://www.w3.org/1999/xlink" x="0px" y="0px" viewBox="0 0 600 600"
	 style="enable-background:new 0 0 600 600;" xml:space="preserve">
<style type="text/css">
	.st0{fill:#E9E9E9;}
	.st1{fill:#1A4973;}
</style>
<sodipodi:namedview  bordercolor="#666666" borderopacity="1.0" id="base" inkscape:current-layer="layer1" inkscape:cx="375" inkscape:cy="520" inkscape:document-units="px" inkscape:pageopacity="0.0" inkscape:pageshadow="2" inkscape:window-height="1017" inkscape:window-maximized="1" inkscape:window-width="1920" inkscape:window-x="-8" inkscape:window-y="-8" inkscape:zoom="0.35" pagecolor="#ffffff" showgrid="false">
	</sodipodi:namedview>
<rect class="st0" width="600" height="600"/>
<g>
	<g id="Ebene_1-2">
		<path id="LOGO" class="st1" d="M514.9,128.8l-16.5-45.5c-49.6,28.9-144.7,27.8-198.4-21.4c-53.8,49.2-148.8,50.4-198.4,21.4
			l-16.5,45.5c0,0,27.8,10.8,24.8,55.8c-5.8,87.4,18.2,142.6,51.2,178.7l93.6-7.5c3.5,8.3,9.2,15.5,16.6,20.8
			c1.6,1.1,3.2,2.1,4.9,3.1l-0.1,1.8l-0.4,3.6l-0.4,3.5l-0.5,3.4l-0.5,3.3l-0.6,3.2l-0.6,3.1l-0.7,3l-0.7,2.9l-0.8,2.8l-0.8,2.7
			l-0.9,2.6l-1,2.5l-1,2.4l-1,2.3l-1.1,2.2l-1.2,2.1l-1.2,2l-1.3,1.9l-1.3,1.8l-1.4,1.7l-1.4,1.6l-1.5,1.5l-1.5,1.4l-1.6,1.4
			l-0.6,0.5l-0.6,0.5l-0.6,0.5l-0.6,0.5l-0.6,0.4l-0.6,0.4l-0.7,0.4l-0.7,0.4l-0.7,0.4l-0.7,0.4l-0.7,0.4l-0.7,0.3l-0.7,0.3
			l-0.7,0.3l-0.7,0.3l-0.7,0.3l-0.7,0.3l-0.8,0.3l-0.8,0.2l-0.8,0.2l-0.8,0.2l-0.8,0.2l-0.8,0.2l-0.8,0.2l-0.8,0.2l-0.8,0.1
			l-0.8,0.1l-0.8,0.1l-0.8,0.1l-0.9,0.1l-0.9,0.1l-1,0.1h-6.6l-1.6-0.1l-1.6-0.1l-1.6-0.1l-1.5-0.2l-1.6-0.2l-1.6-0.2l-1.6-0.3
			l-1.6-0.3l-1.5-0.3l-1.5-0.4l-1.5-0.4l-1.5-0.4l-1.5-0.5l-1.5-0.5l-1.5-0.5l-1.5-0.5l-1.5-0.6l-1.4-0.6l-1.4-0.6l-1.4-0.7
			l-1.4-0.7l-1.4-0.7l-1.4-0.8l-1.4-0.8l-1.4-0.8l-1.4-0.9l-1.3-0.9l-1.3-0.9l-1-0.7l-1-0.8l-1-0.8l-1-0.8l-1-0.8l-1-0.8l-1-0.9
			l-1-0.9l-0.6-0.6l-0.6-0.6l-0.6-0.6l-0.6-0.6l-0.6-0.6l-0.5-0.5l21-9.5l2.7-1.2l-2-2l0,0l-0.1-0.1l0,0l-0.1-0.1l0,0l-73-73.1l0,0
			l-3.2-3.2l-0.5,4.4l-5.2,95.1l-0.1,2.3l2.3-0.1l26.5-1l0.1,0.2l0.1,0.2l0.1,0.2l1.3,1.7l1.3,1.6l1.3,1.6l1.3,1.6l1.3,1.5l1.3,1.5
			l1.3,1.5l1.3,1.5l1.3,1.5l1.3,1.5l1.3,1.4l1.3,1.4l1.3,1.4l1.4,1.3l1.3,1.3l1.3,1.4l1.4,1.3l1.3,1.3l1.3,1.2l1.3,1.2l1.4,1.2
			l1.4,1.2l1.4,1.2l1.4,1.1l1.4,1.1l1.4,1.1l1.4,1.1l1.4,1.1l1.4,1l1.4,1l1.4,1l1.4,1l1.4,1l1.4,1l1.4,0.9l1.4,0.9l1.4,0.9l1.4,0.9
			l1.4,0.9l1.4,0.9l1.4,0.8l1.4,0.8l1.4,0.8l1.4,0.8l1.4,0.8l1.4,0.8l1.4,0.7l1.4,0.7l1.4,0.7l1.4,0.7l1.4,0.7l1.4,0.6l1.4,0.6
			l1.4,0.6l1.4,0.6l1.4,0.6l1.4,0.6l1.4,0.6l1.4,0.6l1.4,0.5l1.4,0.5l1.4,0.5l1.4,0.5l1.4,0.5l2.5,0.9l2.4,0.9l2.4,0.9l2.4,0.9
			l2.3,1l2.3,1l2.2,1l2.2,1l2.2,1.1l2.1,1.1l2.1,1.1l2,1.1l2,1.2l1.9,1.2l1.9,1.2l1.9,1.2l1.8,1.2l1.8,1.3l1.8,1.3l1.7,1.3l1.7,1.3
			l1.6,1.4l1.6,1.4l1.6,1.4l1.5,1.4l1.5,1.4l1.4,1.4l1.4,1.5l1.4,1.5l1.4,1.5l1.3,1.5l1.3,1.5l1,1.2l0.9,1.2l0.9,1.2l0.9,1.2
			l0.9,1.2l0.8,1.2l0.8,1.2l0.8,1.2l0.8,1.2l0.8,1.2l0.7,1.2l0.7,1.2l0.7,1.2l0.7,1.2l0.6,1.2l0.6,1.3l0,0l1.8,3.8l1.8-3.8l0.8-1.6
			l0.8-1.6l0.9-1.6l0.9-1.6l0.9-1.6l1-1.6l1-1.6l1.1-1.6l1.1-1.5l1.1-1.5l1.2-1.5l1.2-1.5l1.2-1.5l1.3-1.5l1.3-1.5l1.3-1.5l1.4-1.5
			l1.4-1.4l1.5-1.4l1.5-1.4l1.5-1.4l1.6-1.4l1.6-1.4l1.6-1.3l1.7-1.3l1.7-1.3l1.8-1.3l1.8-1.3l1.9-1.2l1.9-1.2l1.9-1.2l2-1.2
			l0.8-0.5l0.8-0.5l0.8-0.4l0.8-0.4l0.8-0.4l0.8-0.4l0.8-0.4l0.8-0.4l0.8-0.4l0.8-0.4l0.8-0.4l0.8-0.4l0.9-0.4l0.9-0.4l0.9-0.4
			l0.9-0.4l0.9-0.4l0.9-0.4l0.9-0.4l0.9-0.4l0.9-0.4l0.9-0.4l0.9-0.4l0.9-0.4l0.9-0.4l0.9-0.4l0.9-0.4l0.9-0.3l0.9-0.3l1-0.3l1-0.3
			l0.9-0.3h0.2l1.4-0.5l1.5-0.5l1.5-0.5l1.5-0.5l1.5-0.5l1.4-0.6l1.4-0.6l1.4-0.6l1.4-0.6l1.4-0.6l1.4-0.6l1.4-0.6l1.4-0.6l1.4-0.7
			l1.4-0.7l1.4-0.7l1.4-0.7l1.4-0.7l1.4-0.8l1.4-0.8l1.4-0.8l1.4-0.8l1.4-0.8l1.4-0.8l1.4-0.9l1.4-0.9l1.4-0.9l1.4-0.9l1.4-0.9
			l1.4-0.9l1.4-1l1.4-1l1.4-1l1.4-1l1.4-1l1.4-1l1.4-1.1l1.4-1.1l1.4-1.1l1.4-1.1l1.4-1.1l1.4-1.2l1.4-1.2l1.4-1.2l1.4-1.2l1.4-1.2
			l1.3-1.3l1.3-1.3l1.3-1.3l1.3-1.3l1.3-1.4l1.3-1.4l1.3-1.4l1.3-1.4l1.3-1.5l1.3-1.5l1.3-1.5l1.3-1.5l1.3-1.5l1.3-1.6l1.3-1.6
			l1.3-1.6l1.3-1.6l1.2-1.6l0.1-0.2l0.1-0.2l0.1-0.1l0,0l26.5,1l2.3,0.1l-0.1-2.3l-5.3-95.3l-0.3-4.6l-3.2,3.2l0,0l-0.1,0.1l0,0
			L409,412.8l0,0l-2.1,2.1l2.7,1.2l21,9.5l-0.9,0.9l-1.2,1.1l-1.2,1.1l-1.2,1l-1.2,1l-1.2,1l-1.2,1l-1.2,0.9l-1.2,0.9l-1.2,0.9
			l-1.2,0.9l-1.2,0.8l-1.3,0.8l-1.3,0.8l-1.3,0.8l-1.3,0.7l-1.4,0.8l-1.3,0.7l-1.3,0.6l-1.3,0.6l-1.3,0.6l-1.3,0.6l-1.4,0.5
			l-1.4,0.5l-1.4,0.5l-1.3,0.4l-1.4,0.4l-1.4,0.4l-1.4,0.4l-1.4,0.3l-1.4,0.3l-1.2,0.2l-1.2,0.2l-1.2,0.2l-1.2,0.2l-1.2,0.2
			l-1.2,0.1l-1.2,0.1l-1.2,0.1l-1.3,0.1l-1.3,0.1h-1.3H371l-2.2-0.2l-2.1-0.3l-2.1-0.4l-2-0.5l-2-0.6l-1.9-0.7l-1.9-0.8l-1.8-0.8
			l-1.8-0.9l-1.7-1l-1.7-1.1l-1.6-1.2l-1.6-1.3l-1.5-1.4l-1.5-1.5l-1.4-1.6l-1.4-1.7l-1.3-1.8l-1.3-1.8l-1.2-2l-1.2-2l-1.1-2.1
			l-1.1-2.2l-1-2.3l-1-2.4l-0.9-2.5l-0.9-2.6l-0.8-2.7l-0.8-2.9l-0.7-2.9l-0.7-3l-0.6-3.1l-0.2-1.2l-0.2-1.3l-0.2-1.3l-0.2-1.3
			l-0.2-1.3l-0.2-1.3l-0.2-1.3l-0.2-1.4l-0.2-1.4l-0.2-1.4l-0.1-1.4l-0.1-1.4l-0.1-1.4l-0.1-0.7c2.6-1.6,5.1-3.4,7.4-5.4
			c8.8-7.6,13.2-18.2,13.2-31.9c0-14.1-4-24.8-12.1-32.2c-8.1-7.4-17-11.6-26.9-12.7c-0.7-0.4-1.5-0.5-2.4-0.5H300
			c-7.3,0-14.6,1.7-21.1,5c-6.3,3-11.8,7.7-15.8,13.4l-96.5-0.5l33.2-192.4h218.8v81.1H274.2l-11.1,45.4c7.7-4,15.9-7.2,24.2-9.5
			c8.8-2.5,17.8-4,26.9-4.7c2.8-0.3,5.5-0.6,8.2-0.8c2.6-0.2,5.4-0.3,8.2-0.3h4.7c26.4,1.1,50.5,9.8,72.5,26.1s34.2,42.6,36.7,78.8
			v11.6c0,2.7-0.1,5.2-0.3,7.8c30.3-36.2,51.5-90,46-172.7C487.1,139.6,514.9,128.8,514.9,128.8z"/>
	</g>
</g>
</svg>
