<svg xmlns="http://www.w3.org/2000/svg" viewBox="0 0 1245.03 1245.03"><defs><style>.cls-1{fill:#1a3552;}.cls-2{fill:#fff;}</style></defs><g id="Ebene_2" data-name="Ebene 2"><g id="Ebene_1-2" data-name="Ebene 1"><rect class="cls-1" width="1245.03" height="1245.03"/><path id="LOGO" class="cls-2" d="M1025.54,276.28l-31-85.25c-93,54.26-271.25,52.14-372-40.17-100.78,92.31-279,94.43-372,40.17l-31,85.25s52.14,20.2,46.5,104.63C255.12,544.72,300.12,648.2,362,716l175.51-14a91.85,91.85,0,0,0,31.13,39,97.31,97.31,0,0,0,9.21,5.77l-.23,3.34-.69,6.69-.81,6.51-.94,6.3-1,6.15-1.09,6-1.18,5.78-1.29,5.62-1.39,5.42-1.48,5.23-1.58,5.06-1.68,4.88-1.88,4.69-1.87,4.5-1.88,4.27-2.06,4.15-2.2,3.91L552.36,839l-2.36,3.6L547.56,846,545,849.24l-2.62,3.06-2.74,2.88-2.81,2.7-2.93,2.54-1.12.91-1.16.9-1.18.89-1.2.86-1.2.82-1.22.81-1.24.77-1.26.75-1.25.71-1.28.69-1.29.68-1.31.64-1.34.62-1.35.6-1.35.56-1.36.54-1.39.51-1.41.49-1.42.46-1.45.45-1.44.42-1.46.39-1.48.36-1.5.33-1.52.32-1.54.28-1.54.27-1.55.24-1.58.21-1.59.18-1.62.15-1.87.15H477.1l-3.05-.15-3-.18-3-.27-2.91-.3-3-.37-3-.43-2.92-.49-2.91-.54-2.88-.6-2.87-.66-2.83-.73-2.82-.79-2.79-.84-2.78-.9-2.75-1-2.74-1-2.74-1-2.7-1.13-2.68-1.2-2.66-1.25-2.64-1.31-2.61-1.37-2.61-1.43-2.56-1.48-2.55-1.54-2.54-1.61-2.51-1.65-2.49-1.72L397.75,850l-1.87-1.43L394,847.14l-1.87-1.48-1.88-1.52-1.87-1.56L386.5,841l-1.87-1.63-1.2-1.09-1.2-1.1L381,836l-1.18-1.12-1.18-1.15-.87-.84,39.38-17.78,5.12-2.3-3.75-3.75h0l-.12-.12h0l-.11-.11h0l-136.95-137h0l-6.09-6.1-.94,8.31L264.5,852.43l-.23,4.25,4.26-.15,49.63-1.87.15.34.19.41.26.36,2.44,3.13,2.43,3.07,2.46,3,2.44,3,2.47,2.89,2.46,2.89,2.46,2.73,2.45,2.82,2.5,2.81,2.47,2.72,2.49,2.68,2.48,2.62,2.44,2.61,2.57,2.49,2.51,2.52,2.42,2.53,2.58,2.45,2.52,2.39,2.53,2.34,2.53,2.31,2.53,2.34,2.53,2.23,2.55,2.19,2.55,2.16,2.55,2.1,2.55,2.08,2.57,2,2.57,2,2.57,1.88,2.59,1.87,2.58,1.88,2.59,1.87,2.59,1.88,2.6,1.87,2.61,1.74,2.61,1.73,2.6,1.69,2.61,1.65,2.62,1.61,2.63,1.59,2.62,1.56,2.65,1.52,2.64,1.5,2.64,1.46,2.65,1.43,2.64,1.4,2.66,1.37,2.67,1.35,2.66,1.31,2.66,1.3,2.68,1.25,2.68,1.22,2.69,1.2,2.68,1.18,2.7,1.15,2.7,1.12,2.7,1.09,2.7,1.07,2.7,1.05,2.72,1,2.71,1,2.72,1,2.72.94,2.72.92,4.65,1.59,4.56,1.63,4.46,1.69,4.41,1.74,4.33,1.88L511,988l4.17,1.88,4.08,1.87,4,2,3.93,2,3.87,2.09,3.75,2.13,3.75,2.18,3.65,2.23,3.55,2.27,3.5,2.3,3.43,2.35,3.36,2.38,3.28,2.42,3.21,2.45,3.13,2.5,3.05,2.53,3,2.55,2.93,2.61,2.85,2.62,2.77,2.64,2.7,2.69,2.65,2.71,2.57,2.74,2.57,2.76,2.41,2.79,2.37,2.81,1.87,2.2,1.75,2.21,1.7,2.23,1.65,2.25,1.61,2.25,1.58,2.27,1.54,2.29,1.5,2.3,1.46,2.29,1.4,2.31,1.37,2.3,1.33,2.33,1.3,2.32,1.25,2.35,1.2,2.34,1.17,2.38h0l3.41,7.09,3.43-7.07,1.52-3,1.57-3,1.65-3,1.71-3,1.78-3,1.88-3,1.87-2.94,2-2.93,2-2.9,2.12-2.89,2.2-2.87,2.25-2.85,2.32-2.83,2.38-2.79,2.48-2.74,2.53-2.76,2.6-2.72,2.69-2.7,2.73-2.66,2.82-2.62,2.88-2.61,3.06-2.68,3-2.53,3.09-2.5,3.19-2.47,3.24-2.44,3.32-2.4,3.39-2.36,3.47-2.33,3.55-2.27,3.62-2.23,3.75-2.19,1.44-.84,1.46-.85,1.48-.82,1.48-.83,1.5-.82,1.52-.81,1.52-.81,1.54-.78,1.54-.79,1.55-.79,1.58-.77,1.57-.77,1.6-.76,1.59-.75,1.61-.75,1.62-.74,1.63-.73,1.65-.71,1.65-.71,1.67-.7,1.66-.69,1.69-.69,1.71-.7,1.7-.67,1.73-.66,1.74-.65,1.75-.66,1.76-.64,1.76-.64,1.88-.61,1.87-.62,1.69-.58h.34l2.55-.87,2.72-.93,2.71-1,2.72-1,2.72-1,2.7-1,2.7-1.06,2.7-1.09,2.7-1.13,2.68-1.14,2.68-1.18,2.69-1.2,2.68-1.22,2.68-1.26,2.66-1.29,2.66-1.31,2.67-1.35,2.66-1.37,2.66-1.41,2.64-1.42,2.65-1.47,2.64-1.5,2.63-1.51,2.62-1.56,2.63-1.59,2.6-1.64,2.61-1.65,2.6-1.68,2.61-1.73,2.61-1.74,2.6-1.88,2.59-1.87,2.59-1.88,2.59-1.87,2.56-1.88,2.57-1.87,2.57-2,2.57-2,2.55-2.08,2.55-2.1,2.55-2.16,2.55-2.19,2.53-2.23,2.53-2.27,2.53-2.31,2.54-2.34,2.51-2.38,2.51-2.42,2.51-2.48,2.52-2.51,2.49-2.55L897,890.3l2.5-2.62L902,885l2.48-2.72,2.47-2.76,2.48-2.81,2.45-2.85,2.46-2.89,2.46-2.94,2.45-3,2.44-3,2.44-3.08,2.23-3.09.28-.38.19-.41.13-.26h0l49.61,1.87,4.26.17-.25-4.25L970.62,674l-.49-8.69-6,6h0l-.22.23h0l-137,137.25h0l-3.94,3.93L828,815l39.38,17.78-1.61,1.59-2.18,2.06-2.19,2-2.22,1.87L857,842.25l-2.23,1.87L852.51,846l-2.27,1.76L848,849.47l-2.31,1.65-2.33,1.61L841,854.28l-2.36,1.5-2.38,1.47-2.4,1.4-2.4,1.35-2.57,1.48-2.44,1.26-2.47,1.2-2.48,1.14L819,866.17l-2.52,1.05-2.53,1-2.55.93-2.56.88-2.46.83-2.61.79-2.6.73-2.65.69-2.66.64-2.68.6-2.25.45-2.25.41-2.27.38-2.29.35-2.3.32-2.33.28-2.32.25-2.35.2-2.36.17-2.36.13h-14.5l-4.16-.37-4-.55-3.94-.71-3.75-.88L736,873.67l-3.62-1.24-3.52-1.4-3.43-1.58-3.34-1.74-3.22-1.88-3.15-2.08-3.06-2.25-2.94-2.43-2.85-2.61-2.78-2.79-2.68-2.93-2.57-3.13-2.47-3.32-2.46-3.43-2.31-3.75-2.23-3.75-2.12-4-2-4.22-1.88-4.39-1.87-4.57-1.73-4.77-1.63-4.93-1.54-5.12-1.42-5.47-1.33-5.48-1.24-5.62L671.37,779l-.41-2.32-.42-2.36-.39-2.4-.37-2.42-.36-2.44-.34-2.47-.34-2.46-.31-2.53-.3-2.57-.29-2.59-.26-2.62-.26-2.65-.24-2.66-.12-1.27a104.17,104.17,0,0,0,13.82-10.05q24.69-21.25,24.71-59.8,0-39.52-22.72-60.3t-50.4-23.75a10.08,10.08,0,0,0-4.44-1h-5.44A87.29,87.29,0,0,0,583,599.7a76.74,76.74,0,0,0-29.7,25.16l-180.87-1,62.27-360.75H844.9V415.24H574.1l-20.85,85.08a234,234,0,0,1,45.46-17.79,262,262,0,0,1,50.4-8.89q7.9-1,15.32-1.48c5-.32,10-.49,15.32-.49h8.89q74.13,3,135.9,48.92t68.79,147.77v21.75c0,5-.21,9.84-.51,14.66C949.62,637,989.39,536,979.07,380.92,973.41,296.48,1025.54,276.28,1025.54,276.28Z"/></g></g></svg>